<svg width="60" height="59" viewBox="-40 -50 100 100" fill="none" xmlns="http://www.w3.org/2000/svg">
<path fill-rule="evenodd" clip-rule="evenodd" d="M34.7968 43.1561C35.0213 43.0113 35.2826 42.9407 35.5476 42.9593V42.9555C38.5913 42.9555 41.1088 40.7569 41.1308 39.4459C41.1308 38.7997 40.6266 38.4988 39.9457 38.3726C37.6234 37.9715 36.3389 37.0504 34.5576 34.2167C33.2178 32.1313 31.5415 29.4939 30.5082 27.8682C29.9718 27.0242 29.6087 26.4529 29.5559 26.3729C29.3314 26.0275 29.2062 25.9904 29.0406 25.9904C28.875 25.9904 28.7425 26.0238 28.5069 26.3729C28.4557 26.4565 28.0592 27.077 27.4791 27.9849C26.4353 29.6187 24.7969 32.183 23.5052 34.2241C21.676 37.069 20.4357 37.9752 18.1171 38.3763C17.4288 38.5026 16.932 38.8034 16.932 39.4496C16.932 40.7569 19.4347 42.9593 22.4968 42.9593C22.7618 42.9407 23.0268 43.0113 23.2476 43.1561C23.4684 43.3009 23.6377 43.5163 23.7297 43.7689C24.2376 44.7457 24.9995 45.5627 25.9306 46.1309C26.8618 46.6992 27.9328 47 29.0222 47C30.1116 47 31.1826 46.6992 32.1138 46.1309C33.0486 45.559 33.8104 44.7457 34.3147 43.7689C34.403 43.5163 34.576 43.3009 34.7968 43.1561ZM36.7474 31.8101C39.2575 35.758 42.3711 37.0318 45.3081 37.0318H45.3118C49.2204 37.0318 50.6337 34.9595 50.6337 34.1164C50.6337 33.7747 50.4534 33.4702 49.8608 33.4702C47.0747 33.4702 45.3228 31.8027 43.9648 29.5706C42.6067 27.3348 35.8531 16.3936 35.7648 16.2673C35.7243 16.1856 35.6617 16.1114 35.5844 16.0631C35.5034 16.0111 35.4151 15.9851 35.3231 15.9851C35.2274 15.9851 35.1354 16.0111 35.0544 16.0594C34.9735 16.1076 34.9035 16.1782 34.8594 16.2599C34.7637 16.4159 31.2047 22.0648 31.12 22.1836C31.0464 22.2913 31.006 22.4176 31.0023 22.5476C31.006 22.6739 31.0428 22.7964 31.1164 22.8967C31.1826 23.0192 35.4703 29.8083 36.7474 31.8101ZM37.6307 0.654049C36.8836 0.223232 36.0371 0.000400543 35.1759 0.000400543C34.3147 -0.0107422 33.4645 0.208374 32.7137 0.639187C31.9629 1.06629 31.3409 1.69023 30.9066 2.44415C29.9202 4.02999 15.4451 27.3385 14.0907 29.5669C12.7363 31.7952 10.9881 33.4665 8.19829 33.4665C7.60574 33.4665 7.42171 33.771 7.42171 34.1127C7.42171 34.9558 8.85341 37.0281 12.762 37.0281C15.7101 37.0281 18.8127 35.7543 21.3227 31.8064C22.6109 29.8083 32.5959 13.9239 34.7085 10.5219C34.8005 10.3622 34.9808 10.1097 35.2348 10.1097C35.4887 10.1097 35.6175 10.2657 35.7795 10.5219C40.0635 17.2887 45.805 26.4175 45.805 26.4175C48.1531 30.1982 50.8693 31.1193 53.2027 31.1193C56.2979 31.1193 58.002 29.4963 58.002 28.423C58.002 28.0405 57.8363 27.6282 57.1002 27.6282C55.2379 27.6282 54.5387 26.6515 52.485 23.3089C50.9282 20.8466 39.4342 2.45529 39.4342 2.45529C38.9999 1.70508 38.3779 1.08486 37.6307 0.654049ZM5.52261 23.3089C3.46524 26.6515 2.76965 27.6282 0.907345 27.6282H0.903667C0.174938 27.6282 0.00195312 28.0405 0.00195312 28.423C0.00195312 29.4963 1.706 31.1193 4.80125 31.1193C7.12728 31.1193 9.82504 30.1982 12.1989 26.4175C12.1989 26.4175 26.7477 3.33178 26.8434 3.16837C26.9869 3.01239 27.0789 2.81926 27.112 2.61128C27.0789 2.40331 26.9869 2.21389 26.8434 2.06534C26.3796 1.42283 25.7687 0.902878 25.0657 0.542629C24.3628 0.186092 23.5862 0.000400543 22.7986 0.000400543C21.941 -0.00331497 21.0945 0.223232 20.3474 0.654049C19.6003 1.08486 18.9783 1.70508 18.544 2.45529C18.544 2.45529 7.04631 20.8466 5.52261 23.3089Z" fill="#D5C9BE"/>
</svg>
